<svg xmlns="http://www.w3.org/2000/svg" xmlns:xlink="http://www.w3.org/1999/xlink" viewBox="0 0 449.09 100"><defs><style>.cls-1{fill:#e30613;}.cls-2{fill:#240046;}.cls-3{fill:url(#Gradiente_sem_nome_4);}</style><linearGradient id="Gradiente_sem_nome_4" x1="22.83" y1="75.85" x2="87.75" y2="18.52" gradientUnits="userSpaceOnUse"><stop offset="0" stop-color="#e30613"/><stop offset="0.1" stop-color="#c1051c"/><stop offset="0.26" stop-color="#910329"/><stop offset="0.42" stop-color="#6a0233"/><stop offset="0.57" stop-color="#4b013b"/><stop offset="0.72" stop-color="#360141"/><stop offset="0.87" stop-color="#280045"/><stop offset="1" stop-color="#240046"/></linearGradient></defs><g id="Camada_2" data-name="Camada 2"><g id="Camada_1-2" data-name="Camada 1"><path class="cls-1" d="M152.21,9.23h-8.32l-12,31.32H116.71l12-31.32h-11.3L124,0h34.7Z"/><path class="cls-1" d="M177.62,40.55H145.9L161.45,0h34.7l-6.48,9.23H173.09l-2.52,6.54H187l-6.42,9.12H167.07l-2.47,6.43h19.5Z"/><path class="cls-1" d="M228.1,40.55H213.24l1.95-27.47-12,18.24h8.26L205,40.55H182.33L209.23,0h21.11Z"/><path class="cls-1" d="M257.92,40.55l-5-17.89L246,40.55H230.85L246.39,0h15.84l5.33,18.47L287.06,0h15.83L287.35,40.55H272.21l6.88-17.89L260.33,40.55Z"/><path class="cls-2" d="M162,53.55c3.06,0,5.07.55,6,1.64s.95,2.83,0,5.19l-6.57,17.21a10.32,10.32,0,0,1-3.94,5.13,13,13,0,0,1-7.16,1.71L153.69,100H136.28l-3.94-15.7-6,15.7H109l13.8-35.87h-3.42l7.23-10.58Zm-25.69,20.3H142a5.48,5.48,0,0,0,3.05-.72,5.58,5.58,0,0,0,1.87-2.76L148,67.61c.52-1.36.61-2.28.26-2.76s-1.18-.72-2.5-.72h-5.65Z"/><path class="cls-2" d="M160,98.36q-1.51-1.65-.13-5.19l12.55-32.79a10,10,0,0,1,4.14-5.19,14.21,14.21,0,0,1,7.29-1.64h26.81c3.06,0,5.07.55,6,1.64s1,2.83,0,5.19L204.15,93.17a10.17,10.17,0,0,1-4,5.19,13.79,13.79,0,0,1-7.26,1.64H166Q161.51,100,160,98.36Zm19.78-9.66a3.18,3.18,0,0,0,2.49.72h2.37a5.48,5.48,0,0,0,3.05-.72,5.65,5.65,0,0,0,1.88-2.76l7-18.33c.52-1.36.61-2.28.26-2.76s-1.18-.72-2.5-.72H192a5.73,5.73,0,0,0-3.06.72A5.51,5.51,0,0,0,187,67.61l-7,18.33C179.45,87.3,179.38,88.22,179.78,88.7Z"/><path class="cls-2" d="M235.62,67.61l-7,18.33c-.52,1.36-.59,2.28-.19,2.76a3.18,3.18,0,0,0,2.49.72h22L245.68,100h-31q-4.53,0-6-1.64t-.13-5.19L221,60.38a10,10,0,0,1,4.14-5.19,14.21,14.21,0,0,1,7.29-1.64H258c3,0,5,.55,6,1.64s1,2.83.07,5.19l-3.55,9.4H243.11l.86-2.24c.48-1.36.53-2.26.16-2.72a3.16,3.16,0,0,0-2.46-.69h-1a5.73,5.73,0,0,0-3.06.72A5.45,5.45,0,0,0,235.62,67.61Z"/><path class="cls-2" d="M297.45,100H280.1l-2.76-17.87L270.51,100H253.17L271,53.55h17.35l-6.84,17.87,16.43-17.87h17.35L293.64,76.68Z"/><path class="cls-2" d="M336.94,100H300.6l17.81-46.45h39.75l-7.42,10.58h-19l-2.89,7.49h18.79l-7.36,10.44H324.85L322,89.42h22.34Z"/><path class="cls-2" d="M395.94,64.13h-9.53L372.61,100H355.27l13.8-35.87H356.12l7.49-10.58h39.75Z"/><path class="cls-2" d="M420.22,65a5.91,5.91,0,0,0-1.61,2.53l-.2.53c-.53,1.36-.59,2.25-.2,2.69a3.42,3.42,0,0,0,2.5.66h12.75q4.53,0,6,1.64t.13,5.19l-5.72,14.92a10.06,10.06,0,0,1-4.13,5.19,14.25,14.25,0,0,1-7.3,1.64h-31l.92-10.58h22a4.52,4.52,0,0,0,4.93-3.48l.2-.46A4.77,4.77,0,0,0,420,83c-.14-.52-.66-.85-1.58-1H404.54c-3.06,0-5.1-.55-6.1-1.65s-1.06-2.82-.14-5.19L404,60.32q2.3-6,9.26-6.77h35.81l-7.42,10.58h-18.6A4.19,4.19,0,0,0,420.22,65Z"/><path class="cls-3" d="M27.9,34.41a5,5,0,0,1,1.23,0c1.5.41,2.31-.32,3.16-1.48,6.25-8.56,14.31-15.08,23.4-20.38A97.76,97.76,0,0,1,83.88,1.22c4.66-1,9.37-1.69,14.17-.81A1.69,1.69,0,0,1,99.63,2a35.48,35.48,0,0,1-.79,14.51A96.33,96.33,0,0,1,77.46,58.31,65.41,65.41,0,0,1,66.19,68.45a1.44,1.44,0,0,0-.67,1.47c.46,6.89-.64,13.35-5.21,18.85-4,4.77-9.16,7.61-14.93,9.53a41.84,41.84,0,0,1-6.71,1.64c-1.87.31-3-.62-2.78-2.54.45-4.52,1-9,1.47-13.54L37.9,79c.06-.48.1-.79-.61-.83-5.93-.34-4.77,0-9-4.18-1.43-1.41-2.81-2.88-4.28-4.25A5.59,5.59,0,0,1,22,65.39c0-.7-.21-1.42-.13-2.11.14-1.22-.43-1.26-1.4-1.14q-8.64,1-17.3,1.94c-2.65.29-3.55-.69-3-3.36,1.2-6.37,3.4-12.33,7.53-17.41C12.75,37.06,19.1,34.3,27.9,34.41Z"/><path class="cls-1" d="M6.2,96.38c-2.77.21-2.74.21-2.55-2.63A72.91,72.91,0,0,1,6.41,77a12.28,12.28,0,0,1,10.08-9c.56-.11,1.12-.23,1.53.33s0,1-.27,1.5c-1.46,2.61-2.51,5.36-1.88,8.4a7.84,7.84,0,0,0,9.35,5.9c1.89-.38,3.8-.73,5.3-2.12a.83.83,0,0,1,1-.09,1,1,0,0,1,.53,1.13c-.72,4.12-2.52,7.54-6.43,9.47-3.71,1.83-7.75,2.5-11.79,3.09C11.32,96,8.76,96.24,6.2,96.38Z"/></g></g></svg>